<mxfile host="app.diagrams.net" agent="Mozilla/5.0 (Windows NT 10.0; Win64; x64) AppleWebKit/537.36 (KHTML, like Gecko) Chrome/132.0.0.0 Safari/537.36" version="26.0.11">
  <diagram name="Page-1" id="ITIGpj3vmvkxRbBgrTWw">
    <mxGraphModel dx="2734" dy="1454" grid="1" gridSize="10" guides="1" tooltips="1" connect="1" arrows="1" fold="1" page="1" pageScale="1" pageWidth="850" pageHeight="1100" math="0" shadow="0">
      <root>
        <mxCell id="0" />
        <mxCell id="1" parent="0" />
        <mxCell id="QER2eHFG-RCssu3-BmZM-22" style="rounded=0;orthogonalLoop=1;jettySize=auto;html=1;entryX=0;entryY=0.5;entryDx=0;entryDy=0;endArrow=none;startFill=0;jumpStyle=none;" parent="1" source="QER2eHFG-RCssu3-BmZM-1" target="QER2eHFG-RCssu3-BmZM-17" edge="1">
          <mxGeometry relative="1" as="geometry" />
        </mxCell>
        <mxCell id="QER2eHFG-RCssu3-BmZM-69" style="edgeStyle=orthogonalEdgeStyle;rounded=0;orthogonalLoop=1;jettySize=auto;html=1;" parent="1" source="QER2eHFG-RCssu3-BmZM-2" target="QER2eHFG-RCssu3-BmZM-1" edge="1">
          <mxGeometry relative="1" as="geometry" />
        </mxCell>
        <mxCell id="QER2eHFG-RCssu3-BmZM-111" style="edgeStyle=orthogonalEdgeStyle;rounded=0;orthogonalLoop=1;jettySize=auto;html=1;" parent="1" source="QER2eHFG-RCssu3-BmZM-7" target="QER2eHFG-RCssu3-BmZM-1" edge="1">
          <mxGeometry relative="1" as="geometry">
            <Array as="points">
              <mxPoint x="700" y="960" />
              <mxPoint x="230" y="960" />
            </Array>
          </mxGeometry>
        </mxCell>
        <mxCell id="QER2eHFG-RCssu3-BmZM-14" value="Electronic Voting System" style="shape=umlFrame;whiteSpace=wrap;html=1;pointerEvents=0;width=150;height=30;" parent="1" vertex="1">
          <mxGeometry x="290" y="140" width="360" height="800" as="geometry" />
        </mxCell>
        <mxCell id="QER2eHFG-RCssu3-BmZM-17" value="Login" style="ellipse;html=1;whiteSpace=wrap;fillColor=#d5e8d4;strokeColor=#82b366;gradientColor=none;" parent="1" vertex="1">
          <mxGeometry x="330" y="460" width="120" height="40" as="geometry" />
        </mxCell>
        <mxCell id="QER2eHFG-RCssu3-BmZM-23" value="Register" style="ellipse;html=1;whiteSpace=wrap;fillColor=#d5e8d4;strokeColor=#82b366;gradientColor=none;" parent="1" vertex="1">
          <mxGeometry x="330" y="400" width="120" height="40" as="geometry" />
        </mxCell>
        <mxCell id="QER2eHFG-RCssu3-BmZM-26" value="Cast Vote" style="ellipse;html=1;whiteSpace=wrap;fillColor=#d5e8d4;strokeColor=#82b366;gradientColor=none;" parent="1" vertex="1">
          <mxGeometry x="330" y="520" width="120" height="40" as="geometry" />
        </mxCell>
        <mxCell id="QER2eHFG-RCssu3-BmZM-27" value="View Profile" style="ellipse;html=1;whiteSpace=wrap;fillColor=#d5e8d4;strokeColor=#82b366;gradientColor=none;" parent="1" vertex="1">
          <mxGeometry x="330" y="700" width="120" height="40" as="geometry" />
        </mxCell>
        <mxCell id="QER2eHFG-RCssu3-BmZM-28" value="View Candidates" style="ellipse;html=1;whiteSpace=wrap;fillColor=#d5e8d4;strokeColor=#82b366;gradientColor=none;" parent="1" vertex="1">
          <mxGeometry x="330" y="760" width="120" height="40" as="geometry" />
        </mxCell>
        <mxCell id="QER2eHFG-RCssu3-BmZM-29" value="View &lt;br&gt;Election Results" style="ellipse;html=1;whiteSpace=wrap;fillColor=#d5e8d4;strokeColor=#82b366;gradientColor=none;" parent="1" vertex="1">
          <mxGeometry x="330" y="820" width="120" height="40" as="geometry" />
        </mxCell>
        <mxCell id="QER2eHFG-RCssu3-BmZM-30" value="Contact Technical Support" style="ellipse;html=1;whiteSpace=wrap;fillColor=#d5e8d4;strokeColor=#82b366;gradientColor=none;" parent="1" vertex="1">
          <mxGeometry x="330" y="880" width="120" height="40" as="geometry" />
        </mxCell>
        <mxCell id="QER2eHFG-RCssu3-BmZM-33" style="rounded=0;orthogonalLoop=1;jettySize=auto;html=1;entryX=0;entryY=0.5;entryDx=0;entryDy=0;endArrow=none;startFill=0;jumpStyle=none;" parent="1" source="QER2eHFG-RCssu3-BmZM-1" target="QER2eHFG-RCssu3-BmZM-23" edge="1">
          <mxGeometry relative="1" as="geometry">
            <mxPoint x="250" y="460" as="sourcePoint" />
            <mxPoint x="340" y="370" as="targetPoint" />
          </mxGeometry>
        </mxCell>
        <mxCell id="QER2eHFG-RCssu3-BmZM-35" style="rounded=0;orthogonalLoop=1;jettySize=auto;html=1;entryX=0;entryY=0.5;entryDx=0;entryDy=0;endArrow=none;startFill=0;jumpStyle=none;" parent="1" source="QER2eHFG-RCssu3-BmZM-1" target="QER2eHFG-RCssu3-BmZM-26" edge="1">
          <mxGeometry relative="1" as="geometry">
            <mxPoint x="260" y="471" as="sourcePoint" />
            <mxPoint x="340" y="370" as="targetPoint" />
          </mxGeometry>
        </mxCell>
        <mxCell id="QER2eHFG-RCssu3-BmZM-36" style="rounded=0;orthogonalLoop=1;jettySize=auto;html=1;entryX=0;entryY=0.5;entryDx=0;entryDy=0;endArrow=none;startFill=0;jumpStyle=none;" parent="1" source="QER2eHFG-RCssu3-BmZM-1" target="QER2eHFG-RCssu3-BmZM-27" edge="1">
          <mxGeometry relative="1" as="geometry">
            <mxPoint x="260" y="484" as="sourcePoint" />
            <mxPoint x="340" y="450" as="targetPoint" />
          </mxGeometry>
        </mxCell>
        <mxCell id="QER2eHFG-RCssu3-BmZM-37" style="rounded=0;orthogonalLoop=1;jettySize=auto;html=1;entryX=0;entryY=0.5;entryDx=0;entryDy=0;endArrow=none;startFill=0;jumpStyle=none;" parent="1" source="QER2eHFG-RCssu3-BmZM-1" target="QER2eHFG-RCssu3-BmZM-28" edge="1">
          <mxGeometry relative="1" as="geometry">
            <mxPoint x="260" y="496" as="sourcePoint" />
            <mxPoint x="340" y="530" as="targetPoint" />
          </mxGeometry>
        </mxCell>
        <mxCell id="QER2eHFG-RCssu3-BmZM-38" style="rounded=0;orthogonalLoop=1;jettySize=auto;html=1;entryX=0;entryY=0.5;entryDx=0;entryDy=0;endArrow=none;startFill=0;jumpStyle=none;" parent="1" source="QER2eHFG-RCssu3-BmZM-1" target="QER2eHFG-RCssu3-BmZM-29" edge="1">
          <mxGeometry relative="1" as="geometry">
            <mxPoint x="260" y="509" as="sourcePoint" />
            <mxPoint x="340" y="610" as="targetPoint" />
          </mxGeometry>
        </mxCell>
        <mxCell id="QER2eHFG-RCssu3-BmZM-39" style="rounded=0;orthogonalLoop=1;jettySize=auto;html=1;entryX=0;entryY=0.5;entryDx=0;entryDy=0;endArrow=none;startFill=0;jumpStyle=none;" parent="1" source="QER2eHFG-RCssu3-BmZM-1" target="QER2eHFG-RCssu3-BmZM-30" edge="1">
          <mxGeometry relative="1" as="geometry">
            <mxPoint x="260" y="509" as="sourcePoint" />
            <mxPoint x="340" y="610" as="targetPoint" />
          </mxGeometry>
        </mxCell>
        <mxCell id="QER2eHFG-RCssu3-BmZM-42" style="edgeStyle=orthogonalEdgeStyle;rounded=0;orthogonalLoop=1;jettySize=auto;html=1;" parent="1" source="QER2eHFG-RCssu3-BmZM-40" target="QER2eHFG-RCssu3-BmZM-1" edge="1">
          <mxGeometry relative="1" as="geometry" />
        </mxCell>
        <mxCell id="QER2eHFG-RCssu3-BmZM-43" value="Create Election" style="ellipse;html=1;whiteSpace=wrap;fillColor=#dae8fc;strokeColor=#6c8ebf;" parent="1" vertex="1">
          <mxGeometry x="490" y="820" width="120" height="40" as="geometry" />
        </mxCell>
        <mxCell id="QER2eHFG-RCssu3-BmZM-44" value="Delete Election" style="ellipse;html=1;whiteSpace=wrap;fillColor=#dae8fc;strokeColor=#6c8ebf;" parent="1" vertex="1">
          <mxGeometry x="490" y="760" width="120" height="40" as="geometry" />
        </mxCell>
        <mxCell id="QER2eHFG-RCssu3-BmZM-45" value="Create Candidate" style="ellipse;html=1;whiteSpace=wrap;fillColor=#dae8fc;strokeColor=#6c8ebf;" parent="1" vertex="1">
          <mxGeometry x="490" y="700" width="120" height="40" as="geometry" />
        </mxCell>
        <mxCell id="QER2eHFG-RCssu3-BmZM-47" value="Request&lt;br&gt;Update Profile" style="ellipse;html=1;whiteSpace=wrap;fillColor=#d5e8d4;strokeColor=#82b366;gradientColor=none;" parent="1" vertex="1">
          <mxGeometry x="330" y="640" width="120" height="40" as="geometry" />
        </mxCell>
        <mxCell id="QER2eHFG-RCssu3-BmZM-48" style="rounded=0;orthogonalLoop=1;jettySize=auto;html=1;entryX=0;entryY=0.5;entryDx=0;entryDy=0;endArrow=none;startFill=0;jumpStyle=none;" parent="1" source="QER2eHFG-RCssu3-BmZM-1" target="QER2eHFG-RCssu3-BmZM-47" edge="1">
          <mxGeometry relative="1" as="geometry">
            <mxPoint x="260" y="484" as="sourcePoint" />
            <mxPoint x="340" y="450" as="targetPoint" />
          </mxGeometry>
        </mxCell>
        <mxCell id="QER2eHFG-RCssu3-BmZM-49" value="Delete Candidate" style="ellipse;html=1;whiteSpace=wrap;fillColor=#dae8fc;strokeColor=#6c8ebf;" parent="1" vertex="1">
          <mxGeometry x="490" y="640" width="120" height="40" as="geometry" />
        </mxCell>
        <mxCell id="QER2eHFG-RCssu3-BmZM-50" value="Attach Candidate" style="ellipse;html=1;whiteSpace=wrap;fillColor=#dae8fc;strokeColor=#6c8ebf;" parent="1" vertex="1">
          <mxGeometry x="490" y="580" width="120" height="40" as="geometry" />
        </mxCell>
        <mxCell id="QER2eHFG-RCssu3-BmZM-51" value="Create Event" style="ellipse;html=1;whiteSpace=wrap;fillColor=#dae8fc;strokeColor=#6c8ebf;" parent="1" vertex="1">
          <mxGeometry x="490" y="460" width="120" height="40" as="geometry" />
        </mxCell>
        <mxCell id="QER2eHFG-RCssu3-BmZM-52" value="Update Event" style="ellipse;html=1;whiteSpace=wrap;fillColor=#dae8fc;strokeColor=#6c8ebf;" parent="1" vertex="1">
          <mxGeometry x="490" y="400" width="120" height="40" as="geometry" />
        </mxCell>
        <mxCell id="QER2eHFG-RCssu3-BmZM-53" value="Delete Event" style="ellipse;html=1;whiteSpace=wrap;fillColor=#dae8fc;strokeColor=#6c8ebf;" parent="1" vertex="1">
          <mxGeometry x="490" y="340" width="120" height="40" as="geometry" />
        </mxCell>
        <mxCell id="QER2eHFG-RCssu3-BmZM-54" style="rounded=0;orthogonalLoop=1;jettySize=auto;html=1;endArrow=none;startFill=0;jumpStyle=none;entryX=1;entryY=0.5;entryDx=0;entryDy=0;" parent="1" source="QER2eHFG-RCssu3-BmZM-7" target="QER2eHFG-RCssu3-BmZM-44" edge="1">
          <mxGeometry relative="1" as="geometry">
            <mxPoint x="255" y="520" as="sourcePoint" />
            <mxPoint x="340" y="770" as="targetPoint" />
          </mxGeometry>
        </mxCell>
        <mxCell id="QER2eHFG-RCssu3-BmZM-55" style="rounded=0;orthogonalLoop=1;jettySize=auto;html=1;endArrow=none;startFill=0;jumpStyle=none;entryX=1;entryY=0.5;entryDx=0;entryDy=0;" parent="1" source="QER2eHFG-RCssu3-BmZM-7" target="QER2eHFG-RCssu3-BmZM-45" edge="1">
          <mxGeometry relative="1" as="geometry">
            <mxPoint x="820" y="669" as="sourcePoint" />
            <mxPoint x="740" y="770" as="targetPoint" />
          </mxGeometry>
        </mxCell>
        <mxCell id="QER2eHFG-RCssu3-BmZM-56" style="rounded=0;orthogonalLoop=1;jettySize=auto;html=1;endArrow=none;startFill=0;jumpStyle=none;entryX=1;entryY=0.5;entryDx=0;entryDy=0;" parent="1" source="QER2eHFG-RCssu3-BmZM-7" target="QER2eHFG-RCssu3-BmZM-49" edge="1">
          <mxGeometry relative="1" as="geometry">
            <mxPoint x="820" y="656" as="sourcePoint" />
            <mxPoint x="740" y="690" as="targetPoint" />
          </mxGeometry>
        </mxCell>
        <mxCell id="QER2eHFG-RCssu3-BmZM-57" style="rounded=0;orthogonalLoop=1;jettySize=auto;html=1;endArrow=none;startFill=0;jumpStyle=none;entryX=1;entryY=0.5;entryDx=0;entryDy=0;" parent="1" source="QER2eHFG-RCssu3-BmZM-7" target="QER2eHFG-RCssu3-BmZM-43" edge="1">
          <mxGeometry relative="1" as="geometry">
            <mxPoint x="820" y="644" as="sourcePoint" />
            <mxPoint x="740" y="610" as="targetPoint" />
          </mxGeometry>
        </mxCell>
        <mxCell id="QER2eHFG-RCssu3-BmZM-58" style="rounded=0;orthogonalLoop=1;jettySize=auto;html=1;endArrow=none;startFill=0;jumpStyle=none;entryX=1;entryY=0.5;entryDx=0;entryDy=0;" parent="1" source="QER2eHFG-RCssu3-BmZM-7" target="QER2eHFG-RCssu3-BmZM-50" edge="1">
          <mxGeometry relative="1" as="geometry">
            <mxPoint x="821" y="680" as="sourcePoint" />
            <mxPoint x="740" y="850" as="targetPoint" />
          </mxGeometry>
        </mxCell>
        <mxCell id="QER2eHFG-RCssu3-BmZM-59" style="rounded=0;orthogonalLoop=1;jettySize=auto;html=1;endArrow=none;startFill=0;jumpStyle=none;entryX=1;entryY=0.5;entryDx=0;entryDy=0;" parent="1" source="QER2eHFG-RCssu3-BmZM-7" target="QER2eHFG-RCssu3-BmZM-51" edge="1">
          <mxGeometry relative="1" as="geometry">
            <mxPoint x="820" y="631" as="sourcePoint" />
            <mxPoint x="740" y="530" as="targetPoint" />
          </mxGeometry>
        </mxCell>
        <mxCell id="QER2eHFG-RCssu3-BmZM-60" style="rounded=0;orthogonalLoop=1;jettySize=auto;html=1;endArrow=none;startFill=0;jumpStyle=none;entryX=1;entryY=0.5;entryDx=0;entryDy=0;" parent="1" source="QER2eHFG-RCssu3-BmZM-7" target="QER2eHFG-RCssu3-BmZM-52" edge="1">
          <mxGeometry relative="1" as="geometry">
            <mxPoint x="821" y="620" as="sourcePoint" />
            <mxPoint x="740" y="450" as="targetPoint" />
          </mxGeometry>
        </mxCell>
        <mxCell id="QER2eHFG-RCssu3-BmZM-61" style="rounded=0;orthogonalLoop=1;jettySize=auto;html=1;endArrow=none;startFill=0;jumpStyle=none;entryX=1;entryY=0.5;entryDx=0;entryDy=0;" parent="1" source="QER2eHFG-RCssu3-BmZM-7" target="QER2eHFG-RCssu3-BmZM-53" edge="1">
          <mxGeometry relative="1" as="geometry">
            <mxPoint x="825" y="620" as="sourcePoint" />
            <mxPoint x="740" y="370" as="targetPoint" />
          </mxGeometry>
        </mxCell>
        <mxCell id="QER2eHFG-RCssu3-BmZM-63" value="Delete User" style="ellipse;html=1;whiteSpace=wrap;fillColor=#f8cecc;strokeColor=#b85450;" parent="1" vertex="1">
          <mxGeometry x="330" y="340" width="120" height="40" as="geometry" />
        </mxCell>
        <mxCell id="QER2eHFG-RCssu3-BmZM-64" value="Update Candidate" style="ellipse;html=1;whiteSpace=wrap;fillColor=#dae8fc;strokeColor=#6c8ebf;" parent="1" vertex="1">
          <mxGeometry x="490" y="517.5" width="120" height="40" as="geometry" />
        </mxCell>
        <mxCell id="QER2eHFG-RCssu3-BmZM-65" style="rounded=0;orthogonalLoop=1;jettySize=auto;html=1;endArrow=none;startFill=0;jumpStyle=none;entryX=1;entryY=0.5;entryDx=0;entryDy=0;" parent="1" source="QER2eHFG-RCssu3-BmZM-7" target="QER2eHFG-RCssu3-BmZM-64" edge="1">
          <mxGeometry relative="1" as="geometry">
            <mxPoint x="810" y="562.5" as="sourcePoint" />
            <mxPoint x="740" y="787.5" as="targetPoint" />
          </mxGeometry>
        </mxCell>
        <mxCell id="QER2eHFG-RCssu3-BmZM-66" value="Update User" style="ellipse;html=1;whiteSpace=wrap;fillColor=#f8cecc;strokeColor=#b85450;" parent="1" vertex="1">
          <mxGeometry x="330" y="280" width="120" height="40" as="geometry" />
        </mxCell>
        <mxCell id="QER2eHFG-RCssu3-BmZM-67" value="Get All Users" style="ellipse;html=1;whiteSpace=wrap;fillColor=#f8cecc;strokeColor=#b85450;" parent="1" vertex="1">
          <mxGeometry x="490" y="160" width="120" height="40" as="geometry" />
        </mxCell>
        <mxCell id="QER2eHFG-RCssu3-BmZM-71" style="rounded=0;orthogonalLoop=1;jettySize=auto;html=1;entryX=0;entryY=0.5;entryDx=0;entryDy=0;endArrow=none;startFill=0;jumpStyle=none;" parent="1" source="QER2eHFG-RCssu3-BmZM-2" target="QER2eHFG-RCssu3-BmZM-63" edge="1">
          <mxGeometry relative="1" as="geometry">
            <mxPoint x="260" y="294" as="sourcePoint" />
            <mxPoint x="340" y="370" as="targetPoint" />
          </mxGeometry>
        </mxCell>
        <mxCell id="QER2eHFG-RCssu3-BmZM-72" style="rounded=0;orthogonalLoop=1;jettySize=auto;html=1;entryX=0;entryY=0.5;entryDx=0;entryDy=0;endArrow=none;startFill=0;jumpStyle=none;" parent="1" source="QER2eHFG-RCssu3-BmZM-2" target="QER2eHFG-RCssu3-BmZM-66" edge="1">
          <mxGeometry relative="1" as="geometry">
            <mxPoint x="260" y="285" as="sourcePoint" />
            <mxPoint x="340" y="310" as="targetPoint" />
          </mxGeometry>
        </mxCell>
        <mxCell id="QER2eHFG-RCssu3-BmZM-73" style="rounded=0;orthogonalLoop=1;jettySize=auto;html=1;entryX=0;entryY=0.5;entryDx=0;entryDy=0;endArrow=none;startFill=0;jumpStyle=none;" parent="1" source="QER2eHFG-RCssu3-BmZM-2" target="QER2eHFG-RCssu3-BmZM-68" edge="1">
          <mxGeometry relative="1" as="geometry">
            <mxPoint x="260" y="275" as="sourcePoint" />
            <mxPoint x="340" y="250" as="targetPoint" />
          </mxGeometry>
        </mxCell>
        <mxCell id="QER2eHFG-RCssu3-BmZM-100" value="Approve Profile Update Request" style="ellipse;html=1;whiteSpace=wrap;fillColor=#f8cecc;strokeColor=#b85450;" parent="1" vertex="1">
          <mxGeometry x="490" y="220" width="120" height="40" as="geometry" />
        </mxCell>
        <mxCell id="QER2eHFG-RCssu3-BmZM-101" value="Reject Profile&lt;br&gt;Update Request" style="ellipse;html=1;whiteSpace=wrap;fillColor=#f8cecc;strokeColor=#b85450;" parent="1" vertex="1">
          <mxGeometry x="490" y="280" width="120" height="40" as="geometry" />
        </mxCell>
        <mxCell id="QER2eHFG-RCssu3-BmZM-102" value="" style="rounded=0;orthogonalLoop=1;jettySize=auto;html=1;entryX=0;entryY=0.5;entryDx=0;entryDy=0;endArrow=none;startFill=0;jumpStyle=none;" parent="1" source="QER2eHFG-RCssu3-BmZM-2" target="QER2eHFG-RCssu3-BmZM-68" edge="1">
          <mxGeometry relative="1" as="geometry">
            <mxPoint x="250" y="267" as="sourcePoint" />
            <mxPoint x="690" y="180" as="targetPoint" />
          </mxGeometry>
        </mxCell>
        <mxCell id="QER2eHFG-RCssu3-BmZM-68" value="Create User" style="ellipse;html=1;whiteSpace=wrap;fillColor=#f8cecc;strokeColor=#b85450;" parent="1" vertex="1">
          <mxGeometry x="330" y="220" width="120" height="40" as="geometry" />
        </mxCell>
        <mxCell id="QER2eHFG-RCssu3-BmZM-104" value="" style="rounded=0;orthogonalLoop=1;jettySize=auto;html=1;endArrow=none;startFill=0;jumpStyle=none;entryX=0;entryY=0.5;entryDx=0;entryDy=0;" parent="1" source="QER2eHFG-RCssu3-BmZM-2" target="QER2eHFG-RCssu3-BmZM-100" edge="1">
          <mxGeometry relative="1" as="geometry">
            <mxPoint x="260" y="272" as="sourcePoint" />
            <mxPoint x="500" y="190" as="targetPoint" />
            <Array as="points">
              <mxPoint x="330" y="270" />
              <mxPoint x="450" y="270" />
            </Array>
          </mxGeometry>
        </mxCell>
        <mxCell id="QER2eHFG-RCssu3-BmZM-105" value="" style="rounded=0;orthogonalLoop=1;jettySize=auto;html=1;endArrow=none;startFill=0;jumpStyle=none;entryX=0;entryY=0.5;entryDx=0;entryDy=0;" parent="1" source="QER2eHFG-RCssu3-BmZM-2" target="QER2eHFG-RCssu3-BmZM-101" edge="1">
          <mxGeometry relative="1" as="geometry">
            <mxPoint x="260" y="280" as="sourcePoint" />
            <mxPoint x="500" y="250" as="targetPoint" />
            <Array as="points">
              <mxPoint x="330" y="330" />
              <mxPoint x="450" y="330" />
            </Array>
          </mxGeometry>
        </mxCell>
        <mxCell id="QER2eHFG-RCssu3-BmZM-108" value="" style="rounded=0;orthogonalLoop=1;jettySize=auto;html=1;entryX=0;entryY=0.5;entryDx=0;entryDy=0;endArrow=none;startFill=0;jumpStyle=none;" parent="1" source="QER2eHFG-RCssu3-BmZM-2" target="QER2eHFG-RCssu3-BmZM-67" edge="1">
          <mxGeometry relative="1" as="geometry">
            <mxPoint x="260" y="267" as="sourcePoint" />
            <mxPoint x="340" y="250" as="targetPoint" />
            <Array as="points">
              <mxPoint x="330" y="210" />
              <mxPoint x="450" y="210" />
            </Array>
          </mxGeometry>
        </mxCell>
        <mxCell id="QER2eHFG-RCssu3-BmZM-7" value="&lt;span style=&quot;background-color: light-dark(#ffffff, var(--ge-dark-color, #121212));&quot;&gt;Manager&lt;/span&gt;" style="shape=umlActor;verticalLabelPosition=bottom;verticalAlign=top;html=1;outlineConnect=0;fillColor=#dae8fc;strokeColor=#6c8ebf;" parent="1" vertex="1">
          <mxGeometry x="685" y="570" width="30" height="60" as="geometry" />
        </mxCell>
        <mxCell id="QER2eHFG-RCssu3-BmZM-1" value="&lt;span style=&quot;background-color: light-dark(#ffffff, var(--ge-dark-color, #121212));&quot;&gt;User&lt;/span&gt;" style="shape=umlActor;verticalLabelPosition=bottom;verticalAlign=top;html=1;outlineConnect=0;fillColor=#d5e8d4;strokeColor=#82b366;" parent="1" vertex="1">
          <mxGeometry x="215" y="600" width="30" height="60" as="geometry" />
        </mxCell>
        <mxCell id="QER2eHFG-RCssu3-BmZM-2" value="&lt;span style=&quot;background-color: light-dark(#ffffff, var(--ge-dark-color, #121212));&quot;&gt;Admin&lt;/span&gt;" style="shape=umlActor;verticalLabelPosition=bottom;verticalAlign=top;html=1;outlineConnect=0;fillColor=#f8cecc;strokeColor=#b85450;" parent="1" vertex="1">
          <mxGeometry x="215" y="230" width="30" height="60" as="geometry" />
        </mxCell>
        <mxCell id="QER2eHFG-RCssu3-BmZM-40" value="&lt;span style=&quot;background-color: light-dark(#ffffff, var(--ge-dark-color, #121212));&quot;&gt;Candidate&lt;/span&gt;" style="shape=umlActor;verticalLabelPosition=bottom;verticalAlign=top;html=1;outlineConnect=0;fillColor=#e1d5e7;strokeColor=#9673a6;" parent="1" vertex="1">
          <mxGeometry x="135" y="600" width="30" height="60" as="geometry" />
        </mxCell>
        <mxCell id="h2gf3iLZLqAmpZ-FBFjn-1" value="Verify Vote Token" style="ellipse;html=1;whiteSpace=wrap;fillColor=#d5e8d4;strokeColor=#82b366;gradientColor=none;" vertex="1" parent="1">
          <mxGeometry x="330" y="580" width="120" height="40" as="geometry" />
        </mxCell>
        <mxCell id="h2gf3iLZLqAmpZ-FBFjn-2" style="rounded=0;orthogonalLoop=1;jettySize=auto;html=1;entryX=0;entryY=0.5;entryDx=0;entryDy=0;endArrow=none;startFill=0;jumpStyle=none;" edge="1" parent="1" source="QER2eHFG-RCssu3-BmZM-1" target="h2gf3iLZLqAmpZ-FBFjn-1">
          <mxGeometry relative="1" as="geometry">
            <mxPoint x="255" y="645" as="sourcePoint" />
            <mxPoint x="340" y="670" as="targetPoint" />
          </mxGeometry>
        </mxCell>
      </root>
    </mxGraphModel>
  </diagram>
</mxfile>
